<?xml version="1.0" ?><svg id="Layer_1" style="enable-background:new 0 0 512 512;" version="1.1" viewBox="0 0 512 512" xml:space="preserve" xmlns="http://www.w3.org/2000/svg" xmlns:xlink="http://www.w3.org/1999/xlink"><style type="text/css">
	.st0{fill:#FFCE0E;}
	.st1{fill:#F5F6F6;}
	.st2{fill:#231F20;}
	.st3{fill:#FFFFFF;}
	.st4{fill:none;stroke:#231F20;stroke-width:6;stroke-linecap:round;stroke-linejoin:round;stroke-miterlimit:10;}
</style><circle class="st0" cx="256" cy="256" r="256"/><g><ellipse class="st1" cx="172.5" cy="197.3" rx="66.3" ry="83.1"/><ellipse class="st2" cx="172.5" cy="222.9" rx="42.8" ry="56"/><ellipse class="st3" cx="157" cy="211.2" rx="11.2" ry="12.9"/><ellipse class="st3" cx="174.2" cy="235.9" rx="6" ry="7.5"/><ellipse class="st1" cx="339.5" cy="197.3" rx="66.3" ry="83.1"/><ellipse class="st2" cx="339.5" cy="222.9" rx="42.8" ry="56"/><ellipse class="st3" cx="323.9" cy="211.2" rx="11.2" ry="12.9"/><ellipse class="st3" cx="341.1" cy="235.9" rx="6" ry="7.5"/></g><circle class="st4" cx="363.1" cy="197.4" r="99.6"/><circle class="st4" cx="148.9" cy="197.4" r="99.6"/><line class="st4" x1="248.5" x2="263.5" y1="197.4" y2="197.4"/><path class="st2" d="M441.4,342c-35-4.1-39.2-24.6-39.4-25.5c-0.3-1.6-1.8-2.7-3.5-2.4c-1.6,0.3-2.7,1.8-2.5,3.5  c0.1,0.7,2.2,11.5,14.6,20.2C388.2,404,326.2,448.5,256,448.5c-70.2,0-132.2-44.4-154.7-110.8c12.5-8.7,14.5-19.5,14.6-20.2  c0.3-1.6-0.8-3.2-2.4-3.4c-1.6-0.3-3.2,0.8-3.5,2.4c-0.2,0.9-4.3,21.4-39.4,25.5c-1.6,0.2-2.8,1.7-2.6,3.3c0.2,1.5,1.5,2.6,3,2.6  c0.1,0,0.2,0,0.4,0c10.5-1.2,18.5-3.9,24.7-7.1c23.7,68.1,87.6,113.6,159.9,113.6c72.4,0,136.2-45.5,159.9-113.6  c6.2,3.2,14.2,5.9,24.7,7.1c0.1,0,0.2,0,0.4,0c1.5,0,2.8-1.1,3-2.6C444.2,343.7,443,342.2,441.4,342z"/></svg>